<svg width="18" height="20" viewBox="0 0 18 20" fill="none" xmlns="http://www.w3.org/2000/svg">
<path d="M7.562 1.684C8.51042 1.48581 9.48958 1.48581 10.438 1.684L12.121 0L13.536 1.415L12.486 2.465C13.7223 3.17679 14.7129 4.24789 15.326 5.536H18V7.536H15.93C15.976 7.863 16 8.196 16 8.536V9.536H18V11.536H16V12.536C16 12.876 15.976 13.209 15.93 13.536H18V15.536H15.326C14.7586 16.7336 13.8629 17.7456 12.7431 18.4542C11.6232 19.1629 10.3252 19.539 9 19.539C7.67477 19.539 6.37677 19.1629 5.25692 18.4542C4.13707 17.7456 3.24138 16.7336 2.674 15.536H0V13.536H2.07C2.023 13.2047 1.99961 12.8706 2 12.536V11.536H0V9.536H2V8.536C2 8.196 2.024 7.863 2.07 7.536H0V5.536H2.674C3.28697 4.24752 4.27751 3.17606 5.514 2.464L4.464 1.414L5.88 0.000999928L7.563 1.685L7.562 1.684ZM9 3.536C7.67392 3.536 6.40215 4.06278 5.46447 5.00047C4.52678 5.93815 4 7.20992 4 8.536V12.536C4 13.8621 4.52678 15.1339 5.46447 16.0715C6.40215 17.0092 7.67392 17.536 9 17.536C10.3261 17.536 11.5979 17.0092 12.5355 16.0715C13.4732 15.1339 14 13.8621 14 12.536V8.536C14 7.20992 13.4732 5.93815 12.5355 5.00047C11.5979 4.06278 10.3261 3.536 9 3.536ZM6 11.536H12V13.536H6V11.536ZM6 7.536H12V9.536H6V7.536Z" fill="#7A88F2"/>
</svg>
