<svg width="46" height="46" viewBox="0 0 46 46" fill="none" xmlns="http://www.w3.org/2000/svg">
<circle cx="23" cy="23" r="23" fill="#7A88F2"/>
<path d="M30.8992 17.2091C33.0676 19.382 33.1421 22.8437 31.1253 25.1016L22.9999 33.2397L14.8747 25.1016C12.858 22.8437 12.9334 19.3765 15.1008 17.2091C17.2707 15.0392 20.7433 14.9661 23.001 16.9898C25.2521 14.9691 28.7309 15.0362 30.8992 17.2091ZM16.4561 18.5644C15.0284 19.992 14.9568 22.2786 16.2725 23.7888L22.9999 30.527L29.7276 23.7888C31.0438 22.278 30.9724 19.9958 29.5426 18.5629C28.1172 17.1347 25.8231 17.066 24.3171 18.3844L20.2894 22.4124L18.9342 21.057L21.6411 18.3482L21.5627 18.2821C20.0536 17.0697 17.8473 17.1732 16.4561 18.5644Z" fill="white"/>
</svg>
