<svg width="20" height="19" viewBox="0 0 20 19" fill="none" xmlns="http://www.w3.org/2000/svg">
<path d="M4 8H4.75C5.44036 8 6 8.55964 6 9.25V12.75C6 13.4404 5.44036 14 4.75 14H4C2.34315 14 1 12.6569 1 11C1 9.34315 2.34315 8 4 8ZM4 8V7C4 3.68629 6.68629 1 10 1C13.3137 1 16 3.68629 16 7V8M16 8H15.25C14.5596 8 14 8.55964 14 9.25V12.75C14 13.4404 14.5596 14 15.25 14H16M16 8C17.6569 8 19 9.34315 19 11C19 12.6569 17.6569 14 16 14M16 14L15.3787 16.4851C15.1561 17.3754 14.3562 18 13.4384 18H11" stroke="#7A88F2" stroke-width="2" stroke-linecap="round" stroke-linejoin="round"/>
</svg>
