<svg width="35" height="35" viewBox="0 0 35 35" fill="none" xmlns="http://www.w3.org/2000/svg">
<circle cx="17.5" cy="17.5" r="17.5" fill="#383843"/>
<g clip-path="url(#clip0_1083_1061)">
<path d="M10.5 16C9.675 16 9 16.675 9 17.5C9 18.325 9.675 19 10.5 19C11.325 19 12 18.325 12 17.5C12 16.675 11.325 16 10.5 16ZM25.5 16C24.675 16 24 16.675 24 17.5C24 18.325 24.675 19 25.5 19C26.325 19 27 18.325 27 17.5C27 16.675 26.325 16 25.5 16ZM18 16C17.175 16 16.5 16.675 16.5 17.5C16.5 18.325 17.175 19 18 19C18.825 19 19.5 18.325 19.5 17.5C19.5 16.675 18.825 16 18 16Z" fill="#C5C2D2"/>
</g>
<defs>
<clipPath id="clip0_1083_1061">
<rect width="24" height="24" fill="white" transform="translate(6 5.5)"/>
</clipPath>
</defs>
</svg>
