<svg width="66" height="60" viewBox="0 0 66 60" fill="none" xmlns="http://www.w3.org/2000/svg">
<rect width="66" height="60" rx="12" fill="white"/>
<path d="M14 23.989C13.999 22.5447 14.2856 21.1144 14.8432 19.78C15.4008 18.4456 16.2185 17.2333 17.2496 16.2126C18.2807 15.1918 19.5048 14.3826 20.8519 13.8314C22.199 13.2801 23.6426 12.9976 25.1 13H39.9C46.029 13 51 17.9408 51 23.989V46H25.1C18.971 46 14 41.0592 14 35.011V23.989ZM47.3 42.3333V23.989C47.2951 22.0466 46.5135 20.1853 45.1265 18.8128C43.7395 17.4403 41.8601 16.6686 39.9 16.6667H25.1C24.1285 16.6643 23.166 16.8519 22.2678 17.2189C21.3696 17.5859 20.5534 18.125 19.8659 18.8053C19.1784 19.4856 18.6332 20.2936 18.2615 21.1832C17.8898 22.0727 17.699 23.0262 17.7 23.989V35.011C17.7049 36.9534 18.4865 38.8147 19.8735 40.1872C21.2605 41.5597 23.1399 42.3314 25.1 42.3333H47.3ZM36.2 27.6667H39.9V31.3333H36.2V27.6667ZM25.1 27.6667H28.8V31.3333H25.1V27.6667Z" fill="#21212E"/>
</svg>
