<svg width="20" height="20" viewBox="0 0 20 20" fill="none" xmlns="http://www.w3.org/2000/svg">
<path d="M1 2.5H9.67578C9.59808 2.82881 9.54517 3.16292 9.51953 3.5H1.5V18.5H16.5V10.4805C16.8371 10.4548 17.1712 10.4019 17.5 10.3242V19C17.5 19.1326 17.4473 19.2597 17.3535 19.3535C17.2597 19.4473 17.1326 19.5 17 19.5H1C0.867391 19.5 0.740252 19.4473 0.646484 19.3535C0.552717 19.2597 0.5 19.1326 0.5 19V3C0.5 2.86739 0.552716 2.74025 0.646484 2.64648C0.740253 2.55272 0.867392 2.5 1 2.5ZM16 0.5C16.9283 0.5 17.8182 0.869013 18.4746 1.52539C19.131 2.18177 19.5 3.07174 19.5 4C19.5 4.92826 19.131 5.81823 18.4746 6.47461C17.8182 7.13099 16.9283 7.5 16 7.5C15.0717 7.5 14.1818 7.13099 13.5254 6.47461C12.869 5.81823 12.5 4.92826 12.5 4C12.5 3.07174 12.869 2.18177 13.5254 1.52539C14.1818 0.869013 15.0717 0.5 16 0.5ZM16 1.5C15.337 1.5 14.7013 1.76358 14.2324 2.23242C13.7636 2.70126 13.5 3.33696 13.5 4C13.5 4.66304 13.7636 5.29874 14.2324 5.76758C14.7013 6.23642 15.337 6.5 16 6.5C16.663 6.5 17.2987 6.23642 17.7676 5.76758C18.2364 5.29874 18.5 4.66304 18.5 4C18.5 3.33696 18.2364 2.70126 17.7676 2.23242C17.2987 1.76358 16.663 1.5 16 1.5Z" fill="white" stroke="#7A88F2"/>
</svg>
