<svg width="172" height="115" viewBox="0 0 172 115" fill="none" xmlns="http://www.w3.org/2000/svg">
<g clip-path="url(#clip0_18_3837)">
<path d="M88.7964 96.1067C110.984 96.1067 128.97 78.0679 128.97 55.8158C128.97 33.5638 110.984 15.525 88.7964 15.525C66.6088 15.525 48.6223 33.5638 48.6223 55.8158C48.6223 78.0679 66.6088 96.1067 88.7964 96.1067Z" fill="url(#paint0_linear_18_3837)"/>
<path d="M21.75 71.5197C25.3595 73.6893 30.5381 71.6837 30.5381 71.6837C30.5381 71.6837 29.8609 66.1613 26.2491 63.9941C22.6396 61.8244 17.4634 63.8275 17.4634 63.8275C17.4634 63.8275 18.1405 69.3502 21.75 71.5197Z" fill="url(#paint1_linear_18_3837)"/>
<path d="M136.243 40.1084C134.359 40.1084 132.831 41.6402 132.831 43.5298C132.831 45.4194 134.359 46.9512 136.243 46.9512C138.127 46.9512 139.655 45.4194 139.655 43.5298C139.655 41.6402 138.127 40.1084 136.243 40.1084Z" fill="#7A88F2"/>
<path d="M64.6968 40.7326C63.1457 40.7326 61.8884 41.9936 61.8884 43.5492C61.8884 45.1047 63.1457 46.3657 64.6968 46.3657C66.2478 46.3657 67.5051 45.1047 67.5051 43.5492C67.5051 41.9936 66.2478 40.7326 64.6968 40.7326Z" fill="#ED893E"/>
<path d="M127.033 99.2751C125.973 99.2751 125.114 98.4134 125.114 97.3506C125.114 96.2877 125.973 95.426 127.033 95.426C128.093 95.426 128.952 96.2877 128.952 97.3506C128.952 98.4134 128.093 99.2751 127.033 99.2751Z" fill="#E1E4E5"/>
<path d="M131.318 27.7396C130.023 27.7396 128.973 26.6864 128.973 25.3872C128.973 24.0881 130.023 23.0349 131.318 23.0349C132.613 23.0349 133.664 24.0881 133.664 25.3872C133.664 26.6864 132.613 27.7396 131.318 27.7396Z" fill="#E1E4E5"/>
<path d="M32.471 41.7386C32.7721 42.8655 32.1053 44.0238 30.9817 44.3257C29.8581 44.6277 28.7031 43.9589 28.4021 42.8321C28.101 41.7052 28.7678 40.5469 29.8914 40.245C31.015 39.943 32.1699 40.6118 32.471 41.7386Z" fill="#E1E4E5"/>
<path d="M70.2616 22.964C68.7142 22.964 67.4597 21.7059 67.4597 20.154C67.4597 18.602 68.7142 17.3439 70.2616 17.3439C71.809 17.3439 73.0635 18.602 73.0635 20.154C73.0635 21.7059 71.809 22.964 70.2616 22.964Z" fill="#E1E4E5"/>
<path d="M146.087 76.9703C144.897 76.9703 143.932 76.1961 143.932 75.2411C143.932 74.286 144.897 73.5118 146.087 73.5118C147.278 73.5118 148.243 74.286 148.243 75.2411C148.243 76.1961 147.278 76.9703 146.087 76.9703Z" fill="#E1E4E5"/>
<path d="M40.031 27.7253H40.0617C40.2435 30.309 42.1594 30.3487 42.1594 30.3487C42.1594 30.3487 40.0466 30.3901 40.0466 33.3753C40.0466 30.3901 37.9341 30.3487 37.9341 30.3487C37.9341 30.3487 39.8492 30.309 40.031 27.7253ZM52.903 92.6944H52.9325C53.107 95.2702 54.9464 95.3099 54.9464 95.3099C54.9464 95.3099 52.9181 95.3511 52.9181 98.3275C52.9181 95.3511 50.8899 95.3099 50.8899 95.3099C50.8899 95.3099 52.7284 95.2702 52.903 92.6944Z" fill="#E1E4E5"/>
<path fill-rule="evenodd" clip-rule="evenodd" d="M60.1945 41.307C47.9041 42.9427 38.4055 53.1059 38.4055 65.5333C38.4055 79.0957 49.688 90.0937 63.6008 90.0937H119.031C130.162 90.0937 139.187 81.2962 139.187 70.4454C139.187 59.5947 130.162 50.7972 119.031 50.7972C119.031 34.5186 105.496 21.3246 88.7962 21.3246C75.5082 21.3246 64.251 29.6899 60.1945 41.307Z" fill="#7A88F2"/>
<path d="M75.6912 58.6908L87.7537 46.5934L99.8161 58.6908M87.7537 79.4985V47.5611" stroke="white" stroke-width="5" stroke-linecap="round" stroke-linejoin="round"/>
<path fill-rule="evenodd" clip-rule="evenodd" d="M25.8547 89.4786H26.7419C26.9563 89.4786 27.1291 89.6536 27.1291 89.8669V90.7568C27.1289 90.8598 27.0881 90.9585 27.0155 91.0313C26.9429 91.1041 26.8445 91.1451 26.7419 91.1452H25.8547C25.7522 91.1448 25.6539 91.1037 25.5814 91.031C25.5089 90.9582 25.4679 90.8597 25.4675 90.7568V89.8669C25.4674 89.8159 25.4773 89.7653 25.4967 89.7182C25.5161 89.671 25.5446 89.6281 25.5806 89.592C25.6166 89.5559 25.6593 89.5273 25.7064 89.5079C25.7534 89.4884 25.8038 89.4785 25.8547 89.4786ZM28.9303 89.4786H29.8174C30.0301 89.4786 30.2048 89.6536 30.2048 89.8669V90.7568C30.2046 90.8598 30.1638 90.9585 30.0912 91.0313C30.0185 91.1041 29.9201 91.1451 29.8174 91.1452H28.9303C28.8277 91.1448 28.7295 91.1037 28.6569 91.031C28.5844 90.9582 28.5435 90.8597 28.5431 90.7568V89.8669C28.5431 89.6536 28.7176 89.4786 28.9303 89.4786ZM32.0083 89.4786H32.8954C33.1082 89.4786 33.2826 89.6536 33.2826 89.8669V90.7568C33.2825 90.8598 33.2417 90.9585 33.1691 91.0313C33.0965 91.1041 32.9981 91.1451 32.8954 91.1452H32.0083C31.9057 91.1448 31.8075 91.1037 31.735 91.031C31.6624 90.9582 31.6215 90.8597 31.6211 90.7568V89.8669C31.621 89.8159 31.6309 89.7653 31.6503 89.7182C31.6697 89.671 31.6982 89.6281 31.7342 89.592C31.7702 89.5559 31.8129 89.5273 31.86 89.5079C31.907 89.4884 31.9574 89.4785 32.0083 89.4786ZM35.0841 89.4786H35.9712C36.1839 89.4786 36.3584 89.6536 36.3584 89.8669V90.7568C36.3583 90.8598 36.3175 90.9585 36.2449 91.0313C36.1723 91.1041 36.0738 91.1451 35.9712 91.1452H35.0841C34.9812 91.1451 34.8825 91.1042 34.8096 91.0315C34.7367 90.9587 34.6955 90.86 34.695 90.7568V89.8669C34.6961 89.764 34.7375 89.6656 34.8103 89.5929C34.8831 89.5203 34.9814 89.4793 35.0841 89.4786ZM38.1602 89.4786H39.0473C39.2619 89.4786 39.4364 89.6536 39.4364 89.8669V90.7568C39.4363 90.808 39.4262 90.8586 39.4066 90.9058C39.3869 90.953 39.3582 90.9958 39.3221 91.0319C39.286 91.0679 39.2431 91.0965 39.196 91.1159C39.1488 91.1354 39.0983 91.1453 39.0473 91.1452H38.1602C38.0576 91.1448 37.9594 91.1037 37.8868 91.031C37.8143 90.9582 37.7734 90.8597 37.773 90.7568V89.8669C37.773 89.6536 37.9475 89.4786 38.1602 89.4786ZM29.0432 92.8426H29.9304C30.1431 92.8426 30.3176 93.0175 30.3176 93.2309V94.1225C30.3171 94.2254 30.2762 94.3239 30.2037 94.3966C30.1312 94.4694 30.0329 94.5104 29.9304 94.5108H29.0432C28.9406 94.5107 28.8421 94.4698 28.7695 94.397C28.697 94.3242 28.6561 94.2255 28.656 94.1225V93.2326C28.6557 93.1814 28.6655 93.1307 28.6849 93.0834C28.7042 93.036 28.7327 92.993 28.7687 92.9567C28.8046 92.9205 28.8474 92.8917 28.8946 92.8721C28.9417 92.8525 28.9922 92.8425 29.0432 92.8426ZM32.1192 92.8426H33.0063C33.219 92.8426 33.3935 93.0175 33.3935 93.2309V94.1225C33.3931 94.2254 33.3522 94.3239 33.2796 94.3966C33.2071 94.4694 33.1089 94.5104 33.0063 94.5108H32.1192C32.0166 94.5104 31.9183 94.4694 31.8457 94.3967C31.7732 94.3239 31.7322 94.2254 31.7318 94.1225V93.2326C31.7315 93.1814 31.7413 93.1307 31.7607 93.0834C31.78 93.036 31.8085 92.993 31.8445 92.9567C31.8805 92.9205 31.9233 92.8917 31.9705 92.8721C32.0176 92.8525 32.0681 92.8425 32.1192 92.8426ZM35.1951 92.8426H36.0822C36.2968 92.8426 36.4713 93.0175 36.4713 93.2309V94.1225C36.4708 94.2257 36.4296 94.3244 36.3567 94.3972C36.2838 94.47 36.1851 94.5108 36.0822 94.5108H35.1951C35.0925 94.5104 34.9943 94.4694 34.9217 94.3966C34.8492 94.3239 34.8083 94.2254 34.8079 94.1225V93.2326C34.8079 93.0175 34.9824 92.8426 35.1951 92.8426ZM32.0083 85.8649H32.8954C33.1082 85.8649 33.2826 86.0399 33.2826 86.2532V87.143C33.2826 87.246 33.2418 87.3447 33.1692 87.4176C33.0966 87.4904 32.9981 87.5314 32.8954 87.5315H32.0083C31.9057 87.5311 31.8074 87.49 31.7349 87.4172C31.6624 87.3444 31.6215 87.2459 31.6211 87.143V86.2532C31.621 86.2022 31.6309 86.1516 31.6503 86.1045C31.6697 86.0573 31.6982 86.0144 31.7342 85.9783C31.7702 85.9422 31.8129 85.9136 31.86 85.8942C31.907 85.8747 31.9574 85.8648 32.0083 85.8649ZM35.0841 85.8649H35.9712C36.1839 85.8649 36.3584 86.0399 36.3584 86.2532V87.143C36.3583 87.246 36.3175 87.3447 36.2449 87.4176C36.1723 87.4904 36.0739 87.5314 35.9712 87.5315H35.0841C34.9812 87.5314 34.8825 87.4905 34.8096 87.4177C34.7367 87.3449 34.6955 87.2461 34.695 87.143V86.2532C34.6961 86.1503 34.7375 86.0519 34.8103 85.9793C34.8831 85.9066 34.9814 85.8656 35.0841 85.8649ZM138.439 89.4786H139.327C139.541 89.4786 139.714 89.6536 139.714 89.8669V90.7568C139.714 90.8598 139.673 90.9585 139.6 91.0313C139.528 91.1041 139.429 91.1451 139.327 91.1452H138.439C138.337 91.1448 138.239 91.1037 138.166 91.031C138.094 90.9582 138.053 90.8597 138.052 90.7568V89.8669C138.052 89.8159 138.062 89.7653 138.081 89.7182C138.101 89.671 138.129 89.6281 138.165 89.592C138.201 89.5559 138.244 89.5273 138.291 89.5079C138.338 89.4884 138.389 89.4785 138.439 89.4786ZM141.515 89.4786H142.402C142.615 89.4786 142.789 89.6536 142.789 89.8669V90.7568C142.789 90.8598 142.748 90.9585 142.676 91.0313C142.603 91.1041 142.505 91.1451 142.402 91.1452H141.515C141.412 91.1448 141.314 91.1037 141.242 91.031C141.169 90.9582 141.128 90.8597 141.128 90.7568V89.8669C141.128 89.6536 141.302 89.4786 141.515 89.4786ZM144.593 89.4786H145.48C145.693 89.4786 145.867 89.6536 145.867 89.8669V90.7568C145.867 90.8598 145.826 90.9585 145.754 91.0313C145.681 91.1041 145.583 91.1451 145.48 91.1452H144.593C144.49 91.1448 144.392 91.1037 144.32 91.031C144.247 90.9582 144.206 90.8597 144.206 90.7568V89.8669C144.206 89.8159 144.216 89.7653 144.235 89.7182C144.254 89.671 144.283 89.6281 144.319 89.592C144.355 89.5559 144.398 89.5273 144.445 89.5079C144.492 89.4884 144.542 89.4785 144.593 89.4786ZM147.669 89.4786H148.556C148.769 89.4786 148.943 89.6536 148.943 89.8669V90.7568C148.943 90.8598 148.902 90.9585 148.83 91.0313C148.757 91.1041 148.659 91.1451 148.556 91.1452H147.669C147.566 91.1451 147.467 91.1042 147.394 91.0315C147.321 90.9587 147.28 90.86 147.28 90.7568V89.8669C147.281 89.764 147.322 89.6656 147.395 89.5929C147.468 89.5203 147.566 89.4793 147.669 89.4786ZM150.745 89.4786H151.632C151.847 89.4786 152.021 89.6536 152.021 89.8669V90.7568C152.021 90.808 152.011 90.8586 151.991 90.9058C151.972 90.953 151.943 90.9958 151.907 91.0319C151.871 91.0679 151.828 91.0965 151.781 91.1159C151.733 91.1354 151.683 91.1453 151.632 91.1452H150.745C150.642 91.1448 150.544 91.1037 150.472 91.031C150.399 90.9582 150.358 90.8597 150.358 90.7568V89.8669C150.358 89.6536 150.532 89.4786 150.745 89.4786ZM141.628 92.8426H142.515C142.728 92.8426 142.902 93.0175 142.902 93.2309V94.1225C142.902 94.2254 142.861 94.3239 142.788 94.3966C142.716 94.4694 142.618 94.5104 142.515 94.5108H141.628C141.525 94.5107 141.427 94.4698 141.354 94.397C141.282 94.3242 141.241 94.2255 141.241 94.1225V93.2326C141.24 93.1814 141.25 93.1307 141.27 93.0834C141.289 93.036 141.317 92.993 141.353 92.9567C141.389 92.9205 141.432 92.8917 141.479 92.8721C141.526 92.8525 141.577 92.8425 141.628 92.8426ZM144.704 92.8426H145.591C145.804 92.8426 145.978 93.0175 145.978 93.2309V94.1225C145.978 94.2254 145.937 94.3239 145.864 94.3966C145.792 94.4694 145.694 94.5104 145.591 94.5108H144.704C144.601 94.5104 144.503 94.4694 144.43 94.3967C144.358 94.3239 144.317 94.2254 144.316 94.1225V93.2326C144.316 93.1814 144.326 93.1307 144.345 93.0834C144.365 93.036 144.393 92.993 144.429 92.9567C144.465 92.9205 144.508 92.8917 144.555 92.8721C144.602 92.8525 144.653 92.8425 144.704 92.8426ZM147.78 92.8426H148.667C148.882 92.8426 149.056 93.0175 149.056 93.2309V94.1225C149.056 94.2257 149.014 94.3244 148.941 94.3972C148.868 94.47 148.77 94.5108 148.667 94.5108H147.78C147.677 94.5104 147.579 94.4694 147.506 94.3966C147.434 94.3239 147.393 94.2254 147.393 94.1225V93.2326C147.393 93.0175 147.567 92.8426 147.78 92.8426ZM144.593 85.8649H145.48C145.693 85.8649 145.867 86.0399 145.867 86.2532V87.143C145.867 87.246 145.826 87.3447 145.754 87.4176C145.681 87.4904 145.583 87.5314 145.48 87.5315H144.593C144.49 87.5311 144.392 87.49 144.32 87.4172C144.247 87.3444 144.206 87.2459 144.206 87.143V86.2532C144.206 86.2022 144.216 86.1516 144.235 86.1045C144.254 86.0573 144.283 86.0144 144.319 85.9783C144.355 85.9422 144.398 85.9136 144.445 85.8942C144.492 85.8747 144.542 85.8648 144.593 85.8649ZM147.669 85.8649H148.556C148.769 85.8649 148.943 86.0399 148.943 86.2532V87.143C148.943 87.246 148.902 87.3447 148.83 87.4176C148.757 87.4904 148.659 87.5314 148.556 87.5315H147.669C147.566 87.5314 147.467 87.4905 147.394 87.4177C147.321 87.3449 147.28 87.2461 147.28 87.143V86.2532C147.281 86.1503 147.322 86.0519 147.395 85.9793C147.468 85.9066 147.566 85.8656 147.669 85.8649Z" fill="#E1E4E5"/>
</g>
<defs>
<linearGradient id="paint0_linear_18_3837" x1="90.5095" y1="141.285" x2="88.0175" y2="-72.1339" gradientUnits="userSpaceOnUse">
<stop stop-color="white"/>
<stop offset="1" stop-color="#EEEEEE"/>
</linearGradient>
<linearGradient id="paint1_linear_18_3837" x1="35.7179" y1="78.5036" x2="6.59609" y2="51.5242" gradientUnits="userSpaceOnUse">
<stop stop-color="white"/>
<stop offset="1" stop-color="#EEEEEE"/>
</linearGradient>
<clipPath id="clip0_18_3837">
<rect width="172" height="115" fill="white"/>
</clipPath>
</defs>
</svg>
