<svg width="76" height="44" viewBox="0 0 76 44" fill="none" xmlns="http://www.w3.org/2000/svg">
<path d="M38 14.25C36.0716 14.25 34.1866 14.8218 32.5832 15.8932C30.9798 16.9645 29.7301 18.4873 28.9922 20.2688C28.2542 22.0504 28.0611 24.0108 28.4373 25.9021C28.8136 27.7934 29.7422 29.5307 31.1057 30.8943C32.4693 32.2579 34.2066 33.1865 36.0979 33.5627C37.9892 33.9389 39.9496 33.7458 41.7312 33.0078C43.5127 32.2699 45.0355 31.0202 46.1068 29.4168C47.1782 27.8134 47.75 25.9284 47.75 24C47.7473 21.415 46.7192 18.9366 44.8913 17.1087C43.0634 15.2808 40.585 14.2527 38 14.25ZM38 32.25C36.3683 32.25 34.7733 31.7661 33.4165 30.8596C32.0598 29.9531 31.0024 28.6646 30.378 27.1571C29.7536 25.6496 29.5902 23.9908 29.9085 22.3905C30.2269 20.7902 31.0126 19.3202 32.1664 18.1664C33.3202 17.0126 34.7902 16.2268 36.3905 15.9085C37.9909 15.5902 39.6497 15.7536 41.1571 16.378C42.6646 17.0024 43.9531 18.0598 44.8596 19.4165C45.7661 20.7733 46.25 22.3683 46.25 24C46.2475 26.1873 45.3775 28.2843 43.8309 29.8309C42.2843 31.3775 40.1873 32.2475 38 32.25ZM42.1644 18.8287L36.1644 21.8287C36.0193 21.9016 35.9016 22.0193 35.8288 22.1644L32.8288 28.1644C32.7715 28.2788 32.7445 28.4059 32.7502 28.5337C32.756 28.6614 32.7943 28.7856 32.8616 28.8944C32.9288 29.0032 33.0228 29.093 33.1345 29.1552C33.2463 29.2175 33.3721 29.2501 33.5 29.25C33.6164 29.2498 33.7313 29.2229 33.8356 29.1713L39.8356 26.1713C39.9807 26.0984 40.0984 25.9807 40.1713 25.8356L43.1713 19.8356C43.242 19.6947 43.2666 19.5351 43.2415 19.3795C43.2164 19.2239 43.1429 19.0801 43.0314 18.9686C42.9199 18.8571 42.7762 18.7836 42.6205 18.7585C42.4649 18.7334 42.3053 18.758 42.1644 18.8287ZM38.9375 24.9375L35.1772 26.8228L37.0625 23.0625L40.8266 21.1809L38.9375 24.9375Z" fill="white"/>
</svg>
