<svg width="76" height="51" viewBox="0 0 76 51" fill="none" xmlns="http://www.w3.org/2000/svg">
<path d="M38 14.25C36.0716 14.25 34.1866 14.8218 32.5832 15.8932C30.9798 16.9645 29.7301 18.4873 28.9922 20.2688C28.2542 22.0504 28.0611 24.0108 28.4373 25.9021C28.8136 27.7934 29.7422 29.5307 31.1057 30.8943C32.4693 32.2579 34.2066 33.1865 36.0979 33.5627C37.9892 33.9389 39.9496 33.7458 41.7312 33.0078C43.5127 32.2699 45.0355 31.0202 46.1068 29.4168C47.1782 27.8134 47.75 25.9284 47.75 24C47.7473 21.415 46.7192 18.9366 44.8913 17.1087C43.0634 15.2808 40.585 14.2527 38 14.25ZM42.8356 19.6678L39.8356 25.6678C39.7989 25.7401 39.7401 25.7989 39.6678 25.8356L33.6678 28.8356C33.5974 28.871 33.5176 28.8833 33.4398 28.8708C33.3619 28.8582 33.29 28.8214 33.2343 28.7657C33.1786 28.71 33.1418 28.6381 33.1293 28.5603C33.1167 28.4824 33.129 28.4026 33.1644 28.3322L36.1644 22.3322C36.2011 22.2599 36.2599 22.2011 36.3322 22.1644L42.3322 19.1644C42.4026 19.129 42.4824 19.1167 42.5603 19.1292C42.6381 19.1418 42.71 19.1786 42.7657 19.2343C42.8214 19.29 42.8582 19.3619 42.8708 19.4397C42.8833 19.5176 42.871 19.5974 42.8356 19.6678Z" fill="white"/>
<path d="M50 42C50 42.2652 49.8946 42.5196 49.7071 42.7071C49.5196 42.8946 49.2652 43 49 43H27C26.7348 43 26.4804 42.8946 26.2929 42.7071C26.1054 42.5196 26 42.2652 26 42C26 41.7348 26.1054 41.4804 26.2929 41.2929C26.4804 41.1054 26.7348 41 27 41H49C49.2652 41 49.5196 41.1054 49.7071 41.2929C49.8946 41.4804 50 41.7348 50 42Z" fill="#7A88F2"/>
</svg>
