<svg width="76" height="51" viewBox="0 0 76 51" fill="none" xmlns="http://www.w3.org/2000/svg">
<path d="M47 23.25V32.25C47 32.4489 46.921 32.6397 46.7803 32.7803C46.6397 32.921 46.4489 33 46.25 33H41C40.8011 33 40.6103 32.921 40.4697 32.7803C40.329 32.6397 40.25 32.4489 40.25 32.25V27.375C40.25 27.2755 40.2105 27.1801 40.1402 27.1098C40.0698 27.0395 39.9745 27 39.875 27H36.125C36.0255 27 35.9302 27.0395 35.8598 27.1098C35.7895 27.1801 35.75 27.2755 35.75 27.375V32.25C35.75 32.4489 35.671 32.6397 35.5303 32.7803C35.3897 32.921 35.1989 33 35 33H29.75C29.5511 33 29.3603 32.921 29.2197 32.7803C29.079 32.6397 29 32.4489 29 32.25V23.25C29.0002 22.8522 29.1583 22.4708 29.4397 22.1897L36.9397 14.6897C37.221 14.4086 37.6023 14.2507 38 14.2507C38.3977 14.2507 38.779 14.4086 39.0603 14.6897L46.5603 22.1897C46.8417 22.4708 46.9998 22.8522 47 23.25Z" fill="white"/>
<path d="M50 42C50 42.2652 49.8946 42.5196 49.7071 42.7071C49.5196 42.8946 49.2652 43 49 43H27C26.7348 43 26.4804 42.8946 26.2929 42.7071C26.1054 42.5196 26 42.2652 26 42C26 41.7348 26.1054 41.4804 26.2929 41.2929C26.4804 41.1054 26.7348 41 27 41H49C49.2652 41 49.5196 41.1054 49.7071 41.2929C49.8946 41.4804 50 41.7348 50 42Z" fill="#7A88F2"/>
</svg>
