<svg width="76" height="51" viewBox="0 0 76 51" fill="none" xmlns="http://www.w3.org/2000/svg">
<path d="M33.999 15.5H42C45.0367 15.5 47.5 17.9712 47.5 20.9941V32.5H34C30.9633 32.5 28.5 30.0288 28.5 27.0059V20.9941L28.5068 20.7236C28.5374 20.0939 28.6762 19.4734 28.918 18.8896C29.1942 18.2225 29.5995 17.6167 30.1104 17.1064C30.6211 16.5962 31.2272 16.1916 31.8945 15.916C32.5619 15.6404 33.277 15.4988 33.999 15.5ZM34 16.5C33.4095 16.4987 32.8243 16.6138 32.2783 16.8389C31.732 17.0641 31.2355 17.395 30.8174 17.8125C30.3992 18.2301 30.0679 18.7265 29.8418 19.2725C29.644 19.7503 29.5298 20.258 29.5049 20.7734L29.5 20.9941V27.0068C29.503 28.1986 29.9779 29.3415 30.8213 30.1836C31.6645 31.0256 32.8074 31.4987 33.999 31.5H46.5V20.9932C46.497 19.8014 46.0221 18.6585 45.1787 17.8164C44.3355 16.9745 43.1926 16.5013 42.001 16.5H34ZM33.5 25.5H36.5V22.5H33.5V25.5ZM39.5 25.5H42.5V22.5H39.5V25.5ZM30.5 20.9932C30.4996 20.5341 30.59 20.0795 30.7656 19.6553C30.9414 19.2309 31.1994 18.8451 31.5244 18.5205C31.8494 18.196 32.2355 17.9387 32.6602 17.7637C33.0847 17.5887 33.5398 17.4988 33.999 17.5H41.999C42.9262 17.5009 43.8156 17.8693 44.4717 18.5244C45.1278 19.1795 45.4976 20.068 45.5 20.9951V30.5H34.001C33.0738 30.4991 32.1844 30.1307 31.5283 29.4756C30.9131 28.8613 30.5497 28.0419 30.5049 27.1777L30.5 27.0049V20.9932Z" fill="white" stroke="white"/>
<path d="M50 42C50 42.2652 49.8946 42.5196 49.7071 42.7071C49.5196 42.8946 49.2652 43 49 43H27C26.7348 43 26.4804 42.8946 26.2929 42.7071C26.1054 42.5196 26 42.2652 26 42C26 41.7348 26.1054 41.4804 26.2929 41.2929C26.4804 41.1054 26.7348 41 27 41H49C49.2652 41 49.5196 41.1054 49.7071 41.2929C49.8946 41.4804 50 41.7348 50 42Z" fill="#7A88F2"/>
</svg>
