<svg width="75" height="51" viewBox="0 0 75 51" fill="none" xmlns="http://www.w3.org/2000/svg">
<path d="M47.6497 32.625C47.5838 32.739 47.4891 32.8337 47.3751 32.8995C47.261 32.9654 47.1316 33 47 33H29C28.8684 32.9999 28.7391 32.9651 28.6252 32.8992C28.5113 32.8333 28.4168 32.7386 28.351 32.6247C28.2853 32.5107 28.2507 32.3814 28.2507 32.2498C28.2508 32.1182 28.2854 31.9889 28.3512 31.875C29.779 29.4065 31.9793 27.6365 34.5472 26.7975C33.277 26.0414 32.2902 24.8892 31.7382 23.5179C31.1862 22.1467 31.0997 20.6321 31.4918 19.2069C31.8839 17.7817 32.733 16.5245 33.9087 15.6286C35.0845 14.7327 36.5218 14.2474 38 14.2474C39.4781 14.2474 40.9155 14.7327 42.0912 15.6286C43.2669 16.5245 44.116 17.7817 44.5081 19.2069C44.9003 20.6321 44.8137 22.1467 44.2617 23.5179C43.7098 24.8892 42.7229 26.0414 41.4528 26.7975C44.0206 27.6365 46.2209 29.4065 47.6487 31.875C47.7147 31.9889 47.7495 32.1182 47.7497 32.2499C47.7498 32.3815 47.7153 32.5109 47.6497 32.625Z" fill="white"/>
<path d="M50 42C50 42.2652 49.8946 42.5196 49.7071 42.7071C49.5196 42.8946 49.2652 43 49 43H27C26.7348 43 26.4804 42.8946 26.2929 42.7071C26.1054 42.5196 26 42.2652 26 42C26 41.7348 26.1054 41.4804 26.2929 41.2929C26.4804 41.1054 26.7348 41 27 41H49C49.2652 41 49.5196 41.1054 49.7071 41.2929C49.8946 41.4804 50 41.7348 50 42Z" fill="#7A88F2"/>
</svg>
